<?xml version="1.0"?>
<svg version="1.1" xmlns="http://www.w3.org/2000/svg" width="200" height="44" style="border: dashed 2px #aaa"><path fill="#142c80" d="M15.98291015625,28.36474609375q0-2.771484375,0.153076171875-5.478515625t0.378662109375-5.478515625q0.064453125-0.72509765625,0.08056640625-1.40185546875t0.153076171875-1.184326171875t0.4833984375-0.8056640625t1.071533203125-0.298095703125q0.46728515625,0,0.974853515625,0.1611328125t0.507568359375,0.75732421875q0,2.23974609375-0.185302734375,4.406982421875t-0.249755859375,4.310302734375q1.75634765625-1.98193359375,3.75439453125-3.697998046875t4.23779296875-3.391845703125q0.322265625-0.2255859375,0.82177734375-0.24169921875q0.1611328125,0,0.281982421875,0.01611328125t0.249755859375,0.04833984375q0.1611328125,0.064453125,0.330322265625,0.153076171875t0.169189453125,0.249755859375q0,0.12890625-0.14501953125,0.2255859375q-1.67578125,1.353515625-3.311279296875,2.75537109375t-3.117919921875,2.9970703125q0.193359375,0.37060546875,0.330322265625,0.69287109375t0.298095703125,0.69287109375q1.353515625,3.20654296875,2.312255859375,6.566162109375t2.038330078125,6.662841796875q0.0966796875,0.37060546875,0.281982421875,0.765380859375t0.346435546875,0.78955078125t0.281982421875,0.7412109375t0.120849609375,0.572021484375q0,0.2900390625-0.185302734375,0.459228515625t-0.427001953125,0.265869140625t-0.523681640625,0.12890625t-0.523681640625,0.0322265625q-0.56396484375,0-1.007080078125-0.1611328125t-0.700927734375-0.72509765625q-1.1923828125-3.802734375-2.296142578125-7.60546875t-2.231689453125-7.669921875q-0.37060546875,0.37060546875-0.7412109375,0.926513671875t-0.6767578125,1.023193359375q0,2.4169921875,0.11279296875,4.8017578125t0.38671875,4.8017578125q0.064453125,0.69287109375,0.217529296875,1.3857421875t0.153076171875,1.41796875q0,0.53173828125-0.5478515625,0.7412109375t-1.20849609375,0.20947265625q-0.72509765625,0-1.087646484375-0.14501953125t-0.515625-0.378662109375t-0.185302734375-0.515625t-0.0966796875-0.539794921875q-0.37060546875-2.5458984375-0.46728515625-5.035400390625t-0.0966796875-5.003173828125z M32.171440429688,32.7958984375q0-0.91845703125,0.233642578125-1.893310546875t0.7412109375-1.75634765625t1.281005859375-1.27294921875t1.869140625-0.491455078125q0.82177734375,0,1.732177734375,0.281982421875t1.667724609375,0.8056640625t1.232666015625,1.281005859375t0.475341796875,1.69189453125q0,1.1279296875-0.410888671875,2.14306640625t-1.152099609375,1.812744140625t-1.732177734375,1.2568359375t-2.151123046875,0.459228515625q-0.95068359375,0-1.65966796875-0.346435546875t-1.184326171875-0.926513671875t-0.708984375-1.36962890625t-0.233642578125-1.67578125z M34.540092773438,32.763671875q0,0.2900390625,0.088623046875,0.85400390625t0.265869140625,1.103759765625t0.459228515625,0.9345703125t0.684814453125,0.362548828125q0.85400390625-0.0966796875,1.409912109375-0.555908203125t0.90234375-1.119873046875t0.4833984375-1.43408203125t0.136962890625-1.46630859375q0-0.88623046875-0.346435546875-1.482421875t-1.135986328125-0.966796875q0,0.0322265625,0.0322265625,0.0322265625t0.0322265625-0.0322265625l-0.40283203125-0.0966796875q-0.1611328125-0.064453125-0.394775390625-0.14501953125t-0.459228515625-0.3544921875q-0.62841796875,0.2255859375-0.974853515625,0.580078125t-0.523681640625,0.862060546875t-0.217529296875,1.216552734375t-0.040283203125,1.7080078125z M44.379990234375,39.03173828125l0.33837890625-0.40283203125q-0.064453125-2.70703125-0.14501953125-5.39794921875t-0.08056640625-5.349609375q0-3.30322265625,0.394775390625-6.388916015625t0.781494140625-6.324462890625q0.0322265625-0.193359375,0.185302734375-0.314208984375t0.378662109375-0.201416015625t0.459228515625-0.11279296875t0.427001953125-0.0322265625q0.2578125,0,0.64453125,0.0966796875t0.7734375,0.56396484375q0,0.1611328125,0.024169921875,0.281982421875t0.024169921875,0.281982421875q0,1.224609375-0.330322265625,2.62646484375t-0.443115234375,2.69091796875q-0.12890625,1.5791015625-0.17724609375,3.1259765625t-0.04833984375,3.14208984375l0.0322265625,1.41796875q0.322265625-0.40283203125,0.91845703125-1.03125t1.2890625-1.216552734375t1.3857421875-1.007080078125t1.2568359375-0.4189453125q0.85400390625,0,1.184326171875,0.4833984375t0.330322265625,1.27294921875q0,0.72509765625-0.314208984375,1.5146484375t-0.82177734375,1.538818359375t-1.152099609375,1.345458984375t-1.27294921875,0.88623046875q0.85400390625,1.0634765625,1.748291015625,2.0302734375t1.957763671875,1.82080078125l0,0.37060546875q-0.0322265625,0.1611328125-0.201416015625,0.24169921875t-0.37060546875,0.12890625t-0.394775390625,0.072509765625t-0.322265625,0.024169921875q-0.78955078125,0-1.522705078125-0.46728515625t-1.36962890625-1.14404296875t-1.200439453125-1.43408203125t-1.03125-1.3212890625q0.0966796875,1.85302734375,0.217529296875,3.697998046875t0.120849609375,3.697998046875q0,0.2255859375-0.201416015625,0.378662109375t-0.46728515625,0.233642578125t-0.539794921875,0.11279296875t-0.451171875,0.0322265625q-0.95068359375,0-1.345458984375-0.346435546875t-0.668701171875-1.200439453125z M47.683212890625,31.4423828125q0.40283203125,0,0.958740234375-0.346435546875t1.152099609375-0.862060546875t1.11181640625-1.087646484375t0.829833984375-1.087646484375t0.314208984375-0.829833984375t-0.43505859375-0.281982421875q-0.1611328125,0-0.66064453125,0.46728515625t-1.11181640625,1.14404296875t-1.224609375,1.46630859375t-0.9345703125,1.41796875z M57.426430664063,32.10302734375q0-1.482421875,0.346435546875-2.908447265625t0.588134765625-2.843994140625q0.064453125-0.37060546875,0.507568359375-0.459228515625t0.749267578125-0.088623046875q0.53173828125,0,0.85400390625,0.1611328125q0.12890625,0.064453125,0.24169921875,0.14501953125t0.11279296875,0.20947265625q0,1.3857421875-0.330322265625,2.70703125t-0.330322265625,2.8037109375q0,0.49951171875,0.072509765625,0.942626953125t0.136962890625,0.878173828125l0.0966796875,0.46728515625q0,0.12890625,0.01611328125,0.2255859375t0.04833984375,0.2255859375q0,0.2900390625-0.410888671875,0.394775390625t-0.717041015625,0.104736328125q-0.46728515625,0-0.862060546875-0.185302734375t-0.620361328125-0.636474609375l-0.2255859375-0.46728515625q-0.193359375-0.37060546875-0.193359375-0.829833984375t-0.08056640625-0.845947265625z M58.457680664063,22.40283203125l0-0.30615234375q0-0.75732421875,0.378662109375-1.353515625t1.135986328125-0.59619140625q0.0966796875,0,0.185302734375,0.01611328125t0.185302734375,0.01611328125q0.193359375,0.0322265625,0.507568359375,0.153076171875t0.314208984375,0.378662109375l0,0.0322265625q-0.064453125,0.12890625-0.08056640625,0.265869140625t-0.08056640625,0.233642578125l0.0322265625-0.0322265625q-0.193359375,0.49951171875-0.314208984375,0.8056640625t-0.265869140625,0.491455078125t-0.362548828125,0.265869140625t-0.620361328125,0.08056640625q-0.064453125,0-0.2255859375-0.01611328125t-0.346435546875-0.064453125t-0.314208984375-0.12890625t-0.12890625-0.24169921875z M70.741479492188,16.08642578125q0-1.1279296875,0.38671875-1.5146484375t1.07958984375-0.38671875q0.193359375,0,0.410888671875,0.0322265625t0.410888671875,0.0966796875q1.07958984375-0.20947265625,2.04638671875-0.20947265625q1.56298828125,0,2.8359375,0.5478515625q2.04638671875,0.8701171875,3.3837890625,2.578125t1.9658203125,4.01220703125t0.62841796875,4.72119140625q0,1.353515625-0.185302734375,2.81982421875t-0.717041015625,2.72314453125q-0.46728515625,1.1279296875-1.2890625,2.360595703125t-1.861083984375,2.33642578125t-2.23974609375,1.93359375t-2.425048828125,1.119873046875l0,0.12890625q0,0.322265625-0.169189453125,0.523681640625t-0.410888671875,0.30615234375t-0.555908203125,0.136962890625t-0.588134765625,0.0322265625q-0.1611328125,0-0.459228515625-0.0322265625t-0.580078125-0.120849609375t-0.475341796875-0.233642578125t-0.193359375-0.40283203125q0-2.9326171875-0.153076171875-5.873291015625t-0.346435546875-5.88134765625t-0.346435546875-5.873291015625t-0.153076171875-5.88134765625z M73.786889648438,15.2646484375q0.1611328125,1.546875,0.20947265625,3.085693359375t0.14501953125,3.085693359375q0.2578125,3.99609375,0.59619140625,7.951904296875t0.40283203125,7.951904296875q1.546875-1.01513671875,2.650634765625-2.3203125t1.812744140625-2.8359375t1.039306640625-3.214599609375t0.330322265625-3.472412109375q0-1.2890625-0.2255859375-2.8359375t-0.7734375-2.98095703125t-1.474365234375-2.59423828125t-2.312255859375-1.65966796875q-0.2900390625-0.0966796875-0.700927734375-0.1611328125t-1.313232421875-0.064453125q-0.0966796875,0-0.193359375,0.0322265625t-0.193359375,0.0322265625z M87.171708984375,34.24609375l0-1.5146484375q0-0.82177734375,0.040283203125-2.328369140625t0.104736328125-3.30322265625t0.17724609375-3.746337890625t0.2578125-3.681884765625t0.346435546875-3.101806640625t0.459228515625-2.0302734375q0.1611328125-0.37060546875,0.53173828125-0.46728515625t0.72509765625-0.0966796875q0.56396484375,0,0.990966796875,0.249755859375t0.427001953125,0.910400390625l-0.2900390625,0.322265625q-0.56396484375,3.72216796875-0.72509765625,7.4765625t-0.2255859375,7.5087890625q0.40283203125-0.62841796875,0.910400390625-1.232666015625t1.1279296875-1.071533203125t1.33740234375-0.749267578125t1.571044921875-0.281982421875q1.095703125,0,1.812744140625,0.66064453125t1.184326171875,1.716064453125t0.69287109375,2.360595703125t0.346435546875,2.6103515625t0.169189453125,2.473388671875t0.14501953125,1.941650390625q-0.30615234375,0.4189453125-0.90234375,0.4189453125l-0.04833984375,0q-0.2578125,0-0.56396484375-0.064453125t-0.40283203125-0.322265625l0.0322265625,0.0322265625q-0.2255859375-0.49951171875-0.30615234375-1.442138671875t-0.12890625-2.07861328125t-0.169189453125-2.328369140625t-0.362548828125-2.1591796875t-0.708984375-1.59521484375t-1.2568359375-0.66064453125l-0.0966796875,0q-0.95068359375,0-1.59521484375,0.580078125q-0.6767578125,0.6123046875-1.095703125,1.611328125t-0.64453125,2.2236328125t-0.346435546875,2.360595703125t-0.185302734375,2.0625t-0.1611328125,1.361572265625q-0.0966796875,0.37060546875-0.572021484375,0.491455078125t-0.813720703125,0.120849609375q-0.78955078125,0-1.2890625-0.451171875q-0.37060546875-0.88623046875-0.43505859375-2.20751953125t-0.064453125-2.578125z M102.58680175781,32.48974609375q0-1.095703125,0.298095703125-2.11083984375t0.894287109375-1.812744140625t1.490478515625-1.27294921875t2.070556640625-0.475341796875q0.72509765625,0,1.603271484375,0.217529296875t1.651611328125,0.64453125t1.2890625,1.087646484375t0.515625,1.5146484375q0,0.40283203125-0.136962890625,0.6123046875t-0.555908203125,0.20947265625l-0.17724609375-0.0322265625q0.46728515625,1.2568359375,0.8056640625,2.578125t0.66064453125,2.642578125q0.12890625,0.2578125,0.193359375,0.459228515625t0.064453125,0.394775390625q0,0.2578125-0.14501953125,0.427001953125t-0.378662109375,0.249755859375t-0.4833984375,0.11279296875t-0.443115234375,0.0322265625q-0.69287109375,0-1.039306640625-0.24169921875t-0.49951171875-0.66064453125t-0.185302734375-0.942626953125t-0.12890625-1.055419921875q-0.193359375,0.62841796875-0.507568359375,1.224609375t-0.7412109375,1.071533203125t-1.007080078125,0.75732421875t-1.30517578125,0.281982421875q-1.0634765625,0-1.78857421875-0.6123046875t-1.168212890625-1.506591796875t-0.64453125-1.909423828125t-0.201416015625-1.88525390625z M104.87488769531,32.26416015625q0,0.59619140625,0.08056640625,1.2568359375t0.265869140625,1.30517578125t0.475341796875,1.216552734375t0.72509765625,1.007080078125q0.78955078125-0.85400390625,1.168212890625-2.07861328125t0.6767578125-2.360595703125t0.6767578125-1.94970703125t1.168212890625-0.813720703125q0.49951171875,0,0.837890625,0.17724609375q-0.1611328125-0.40283203125-0.53173828125-0.781494140625t-0.829833984375-0.69287109375t-0.95068359375-0.515625t-0.926513671875-0.201416015625q-0.12890625,0-0.298095703125,0.040283203125t-0.265869140625,0.008056640625q-0.66064453125,0.193359375-1.087646484375,0.668701171875t-0.69287109375,1.119873046875t-0.378662109375,1.3212890625t-0.11279296875,1.27294921875z M116.55169921875,39.03173828125l0.33837890625-0.40283203125q-0.064453125-2.70703125-0.14501953125-5.39794921875t-0.08056640625-5.349609375q0-3.30322265625,0.394775390625-6.388916015625t0.781494140625-6.324462890625q0.0322265625-0.193359375,0.185302734375-0.314208984375t0.378662109375-0.201416015625t0.459228515625-0.11279296875t0.427001953125-0.0322265625q0.2578125,0,0.64453125,0.0966796875t0.7734375,0.56396484375q0,0.1611328125,0.024169921875,0.281982421875t0.024169921875,0.281982421875q0,1.224609375-0.330322265625,2.62646484375t-0.443115234375,2.69091796875q-0.12890625,1.5791015625-0.17724609375,3.1259765625t-0.04833984375,3.14208984375l0.0322265625,1.41796875q0.322265625-0.40283203125,0.91845703125-1.03125t1.2890625-1.216552734375t1.3857421875-1.007080078125t1.2568359375-0.4189453125q0.85400390625,0,1.184326171875,0.4833984375t0.330322265625,1.27294921875q0,0.72509765625-0.314208984375,1.5146484375t-0.82177734375,1.538818359375t-1.152099609375,1.345458984375t-1.27294921875,0.88623046875q0.85400390625,1.0634765625,1.748291015625,2.0302734375t1.957763671875,1.82080078125l0,0.37060546875q-0.0322265625,0.1611328125-0.201416015625,0.24169921875t-0.37060546875,0.12890625t-0.394775390625,0.072509765625t-0.322265625,0.024169921875q-0.78955078125,0-1.522705078125-0.46728515625t-1.36962890625-1.14404296875t-1.200439453125-1.43408203125t-1.03125-1.3212890625q0.0966796875,1.85302734375,0.217529296875,3.697998046875t0.120849609375,3.697998046875q0,0.2255859375-0.201416015625,0.378662109375t-0.46728515625,0.233642578125t-0.539794921875,0.11279296875t-0.451171875,0.0322265625q-0.95068359375,0-1.345458984375-0.346435546875t-0.668701171875-1.200439453125z M119.854921875,31.4423828125q0.40283203125,0,0.958740234375-0.346435546875t1.152099609375-0.862060546875t1.11181640625-1.087646484375t0.829833984375-1.087646484375t0.314208984375-0.829833984375t-0.43505859375-0.281982421875q-0.1611328125,0-0.66064453125,0.46728515625t-1.11181640625,1.14404296875t-1.224609375,1.46630859375t-0.9345703125,1.41796875z M129.59813964844,32.48974609375q0-1.095703125,0.298095703125-2.11083984375t0.894287109375-1.812744140625t1.490478515625-1.27294921875t2.070556640625-0.475341796875q0.72509765625,0,1.603271484375,0.217529296875t1.651611328125,0.64453125t1.2890625,1.087646484375t0.515625,1.5146484375q0,0.40283203125-0.136962890625,0.6123046875t-0.555908203125,0.20947265625l-0.17724609375-0.0322265625q0.46728515625,1.2568359375,0.8056640625,2.578125t0.66064453125,2.642578125q0.12890625,0.2578125,0.193359375,0.459228515625t0.064453125,0.394775390625q0,0.2578125-0.14501953125,0.427001953125t-0.378662109375,0.249755859375t-0.4833984375,0.11279296875t-0.443115234375,0.0322265625q-0.69287109375,0-1.039306640625-0.24169921875t-0.49951171875-0.66064453125t-0.185302734375-0.942626953125t-0.12890625-1.055419921875q-0.193359375,0.62841796875-0.507568359375,1.224609375t-0.7412109375,1.071533203125t-1.007080078125,0.75732421875t-1.30517578125,0.281982421875q-1.0634765625,0-1.78857421875-0.6123046875t-1.168212890625-1.506591796875t-0.64453125-1.909423828125t-0.201416015625-1.88525390625z M131.88622558594,32.26416015625q0,0.59619140625,0.08056640625,1.2568359375t0.265869140625,1.30517578125t0.475341796875,1.216552734375t0.72509765625,1.007080078125q0.78955078125-0.85400390625,1.168212890625-2.07861328125t0.6767578125-2.360595703125t0.6767578125-1.94970703125t1.168212890625-0.813720703125q0.49951171875,0,0.837890625,0.17724609375q-0.1611328125-0.40283203125-0.53173828125-0.781494140625t-0.829833984375-0.69287109375t-0.95068359375-0.515625t-0.926513671875-0.201416015625q-0.12890625,0-0.298095703125,0.040283203125t-0.265869140625,0.008056640625q-0.66064453125,0.193359375-1.087646484375,0.668701171875t-0.69287109375,1.119873046875t-0.378662109375,1.3212890625t-0.11279296875,1.27294921875z M143.56303710937,38.2099609375q0-0.46728515625,0.040283203125-0.98291015625t0.072509765625-0.966796875l0.0966796875-2.4169921875q0.1611328125-2.900390625,0.394775390625-5.7041015625t0.394775390625-5.671875q0.0966796875-1.5791015625,0.14501953125-3.101806640625t0.14501953125-3.101806640625q-0.064453125-0.12890625-0.064453125-0.17724609375q0-0.2255859375,0.169189453125-0.3544921875t0.394775390625-0.217529296875t0.475341796875-0.120849609375t0.378662109375-0.0322265625l0.37060546875,0q0.49951171875,0.064453125,0.72509765625,0.314208984375t0.2900390625,0.59619140625t0.0322265625,0.7412109375t-0.0322265625,0.733154296875q0,2.33642578125-0.11279296875,4.761474609375t-0.2578125,4.8662109375t-0.265869140625,4.88232421875t-0.120849609375,4.825927734375l0,1.1279296875q0,0.75732421875-0.427001953125,0.9990234375t-1.184326171875,0.24169921875q-0.66064453125,0-1.16015625-0.2900390625t-0.49951171875-0.95068359375z"/><path fill="#" d=""/></svg>
